<?xml version="1.0" standalone="no"?>
<!DOCTYPE svg PUBLIC "-//W3C//DTD SVG 20010904//EN"
 "http://www.w3.org/TR/2001/REC-SVG-20010904/DTD/svg10.dtd">
<svg version="1.0" xmlns="http://www.w3.org/2000/svg"
 width="1202.000000pt" height="543.000000pt" viewBox="0 0 1202.000000 543.000000"
 preserveAspectRatio="xMidYMid meet">

<g transform="translate(0.000000,543.000000) scale(0.100000,-0.100000)"
fill="#000000" stroke="none">
<path d="M5820 4981 l0 -70 55 -6 55 -7 0 -393 0 -394 -55 -6 -55 -7 0 -69 0
-69 220 0 220 0 0 69 0 69 -53 6 -53 7 -12 316 c-7 173 -11 317 -9 319 2 2 48
-119 102 -268 54 -150 118 -328 142 -395 l45 -123 72 0 72 0 144 400 c80 220
147 395 148 390 2 -6 -1 -111 -7 -235 -6 -124 -11 -265 -11 -314 l0 -90 -55
-6 -55 -7 0 -69 0 -69 220 0 220 0 0 69 0 69 -55 7 -55 6 0 394 0 393 55 7 55
6 0 70 0 69 -198 0 -197 0 -140 -400 c-76 -219 -141 -397 -144 -395 -2 3 -65
181 -140 397 l-136 393 -197 3 -198 2 0 -69z"/>
<path d="M8154 5036 c-3 -7 -4 -38 -2 -67 l3 -54 55 -10 55 -10 3 -391 2 -391
-57 -9 -58 -9 0 -65 0 -65 290 0 c278 0 293 1 358 23 121 42 221 139 268 260
19 48 23 82 27 217 2 95 0 185 -7 220 -32 176 -166 314 -338 350 -96 21 -591
21 -599 1z m576 -177 c59 -26 86 -53 118 -114 26 -49 27 -54 27 -240 0 -186
-1 -191 -27 -240 -53 -102 -117 -134 -260 -135 l-98 0 0 375 0 375 98 0 c76 0
107 -5 142 -21z"/>
<path d="M10090 4870 l0 -100 -60 0 -60 0 0 -75 0 -75 59 0 60 0 3 -257 c4
-287 8 -304 72 -361 20 -17 52 -36 73 -41 49 -14 147 -14 196 0 41 11 43 22
29 119 l-7 44 -52 -3 c-41 -2 -56 2 -72 18 -20 20 -21 32 -21 251 l0 230 70 0
70 0 0 75 0 75 -70 0 -69 0 -3 98 -3 97 -107 3 -108 3 0 -101z"/>
<path d="M9420 4761 c-30 -10 -79 -30 -107 -45 l-53 -26 0 -90 0 -90 84 0 84
0 6 44 c6 36 12 46 35 56 46 19 140 15 170 -8 32 -23 53 -83 49 -137 l-3 -40
-130 -6 c-150 -7 -222 -29 -272 -81 -47 -50 -63 -90 -63 -155 1 -144 100 -233
259 -233 72 0 125 19 177 63 18 15 34 27 36 27 3 0 10 -18 17 -40 l12 -40 125
0 125 0 -3 68 c-3 64 -4 67 -29 70 -18 2 -29 11 -33 25 -3 12 -6 119 -6 238
l0 217 -28 53 c-32 62 -95 110 -175 134 -69 21 -207 19 -277 -4z m268 -515 c4
-67 -9 -88 -73 -117 -91 -42 -177 -11 -177 63 0 83 58 118 187 115 l60 -2 3
-59z"/>
<path d="M10780 4767 c-25 -7 -72 -27 -105 -43 l-60 -31 -3 -92 -3 -92 83 3
83 3 5 40 c6 49 33 65 113 65 103 0 137 -34 137 -139 l0 -58 -135 -5 c-130 -4
-138 -6 -202 -39 -91 -46 -125 -99 -125 -194 1 -83 29 -146 85 -186 54 -39
108 -52 193 -47 72 5 119 24 171 71 26 23 26 23 39 -23 l10 -35 127 -3 128 -3
-3 68 -3 68 -32 3 -33 3 0 220 c0 129 -5 239 -11 264 -15 60 -76 127 -147 162
-50 24 -70 28 -162 30 -63 2 -123 -2 -150 -10z m250 -527 l0 -70 -40 -26 c-46
-31 -117 -42 -159 -24 -56 23 -65 104 -16 150 28 26 73 37 158 39 l57 1 0 -70z"/>
<path d="M7230 4705 c0 -62 1 -65 28 -71 15 -3 32 -7 37 -9 6 -1 68 -152 138
-334 l127 -330 -24 -53 c-31 -72 -55 -90 -120 -96 l-53 -4 -11 -76 c-6 -42 -9
-79 -6 -81 10 -11 154 -12 192 -1 54 14 120 73 154 137 14 26 92 225 174 442
81 216 152 394 158 396 6 2 23 6 39 9 26 6 27 9 27 71 l0 65 -195 0 -196 0 3
-67 c3 -67 3 -68 33 -71 17 -2 34 -7 39 -12 4 -5 -17 -85 -49 -182 -56 -170
-75 -213 -75 -172 0 11 -25 92 -55 179 -31 87 -54 164 -51 171 3 7 20 14 38
16 l33 3 3 68 3 67 -196 0 -195 0 0 -65z"/>
<path d="M6181 3254 c-161 -43 -289 -182 -338 -367 -20 -76 -22 -259 -4 -337
31 -131 112 -252 211 -318 83 -56 163 -75 291 -70 94 3 111 7 179 39 160 77
254 220 281 429 27 206 -41 409 -175 527 -113 100 -292 138 -445 97z m266
-190 c99 -61 150 -204 140 -388 -13 -234 -104 -348 -278 -347 -76 0 -126 20
-171 68 -137 146 -127 535 17 650 52 42 92 53 172 49 59 -2 82 -8 120 -32z"/>
<path d="M10140 3075 l0 -94 -57 -3 -58 -3 0 -75 0 -75 56 -3 57 -3 4 -247 c4
-206 7 -254 22 -287 39 -90 101 -125 221 -124 44 1 94 4 110 8 33 7 32 4 20
104 l-6 57 -53 0 c-93 0 -91 -6 -94 259 l-3 231 70 0 71 0 0 80 0 80 -70 0
-70 0 0 95 0 95 -110 0 -110 0 0 -95z"/>
<path d="M7315 2972 c-22 -11 -54 -33 -70 -50 -33 -35 -45 -28 -45 26 l0 32
-160 0 -161 0 3 -67 3 -68 55 -10 55 -10 3 -408 c2 -383 1 -407 -15 -407 -10
0 -35 -5 -55 -11 l-38 -10 0 -64 0 -65 215 0 216 0 -3 67 -3 68 -47 9 -48 8 0
115 0 115 34 -30 c49 -43 96 -55 186 -50 61 4 87 10 123 31 118 70 175 236
155 450 -14 151 -78 268 -173 316 -66 34 -172 40 -230 13z m105 -169 c107 -63
119 -389 17 -456 -55 -36 -138 -31 -188 10 l-29 25 0 187 c0 182 1 188 23 208
12 11 31 25 42 31 30 17 103 14 135 -5z"/>
<path d="M8073 2976 c-60 -19 -108 -52 -147 -99 -72 -90 -97 -170 -98 -312 0
-184 63 -299 206 -373 43 -22 67 -27 157 -30 80 -3 121 0 165 13 61 17 154 63
154 75 0 7 -49 122 -54 127 -1 1 -31 -9 -66 -24 -82 -33 -197 -38 -248 -10
-39 21 -78 79 -87 130 l-7 37 241 0 241 0 0 93 c0 154 -41 258 -127 323 -77
59 -228 82 -330 50z m196 -182 c30 -25 51 -75 51 -121 0 -23 -2 -23 -135 -23
-105 0 -135 3 -135 13 0 35 35 109 62 132 42 35 114 35 157 -1z"/>
<path d="M9070 2973 c-19 -10 -49 -37 -66 -60 -30 -39 -32 -40 -38 -20 -3 12
-6 37 -6 55 l0 32 -160 0 -161 0 3 -67 3 -68 55 -10 55 -10 0 -249 0 -249 -25
-8 c-14 -4 -37 -10 -52 -13 -27 -6 -28 -9 -28 -71 l0 -65 215 0 215 0 0 65 c0
62 -1 65 -27 71 -16 3 -39 9 -53 13 l-25 8 -3 195 -2 195 26 26 c32 33 94 51
151 44 l42 -4 6 51 c4 28 7 74 8 101 l2 50 -50 3 c-33 2 -62 -4 -85 -15z"/>
<path d="M9492 2974 c-62 -16 -163 -64 -168 -79 -1 -5 -4 -47 -6 -92 l-3 -83
82 0 82 0 8 42 c6 30 16 46 33 55 32 16 128 16 160 0 35 -17 60 -73 60 -133
l0 -51 -127 -5 c-151 -6 -224 -29 -282 -87 -86 -86 -80 -234 14 -320 51 -47
95 -61 191 -61 74 0 140 25 191 72 l22 20 12 -41 12 -41 129 0 128 0 0 65 0
64 -35 7 -35 6 0 196 c0 225 -10 301 -49 357 -32 48 -115 100 -183 114 -67 15
-172 13 -236 -5z m248 -522 c0 -46 -5 -63 -21 -81 -49 -52 -155 -68 -203 -30
-48 38 -26 134 38 159 11 5 58 9 104 9 l82 1 0 -58z"/>
<path d="M10865 2981 c-135 -36 -232 -142 -265 -292 -16 -72 -8 -218 15 -284
56 -164 172 -244 352 -245 119 0 187 24 259 92 156 148 164 469 15 631 -62 67
-144 100 -256 103 -49 2 -103 -1 -120 -5z m183 -181 c50 -30 75 -96 80 -206 6
-118 -14 -189 -63 -232 -73 -64 -173 -48 -222 36 -23 39 -28 60 -31 140 -7
149 26 245 92 272 39 16 110 11 144 -10z"/>
<path d="M11884 2976 c-17 -8 -49 -35 -70 -61 l-39 -46 -5 53 -5 53 -157 3
-158 3 0 -69 0 -69 53 -9 52 -9 3 -252 c2 -199 0 -253 -10 -253 -7 0 -30 -5
-50 -11 l-38 -10 0 -65 0 -64 213 2 212 3 3 59 c3 67 0 71 -65 81 l-43 6 0
198 c0 183 2 200 20 224 23 29 97 50 157 45 37 -3 38 -2 44 37 4 22 9 67 10
100 l4 60 -50 2 c-27 2 -64 -4 -81 -11z"/>
<path d="M6080 1466 c-83 -19 -106 -31 -165 -86 -60 -58 -94 -125 -102 -206
l-6 -54 106 0 107 0 5 28 c16 75 28 103 56 126 89 75 217 27 234 -87 15 -101
-37 -183 -291 -455 l-193 -207 -1 -72 0 -73 370 0 370 0 0 135 0 135 -85 0
-85 0 0 -45 c0 -28 -5 -48 -13 -51 -7 -2 -71 -3 -142 -2 l-129 3 143 157 c241
264 275 321 274 449 -1 166 -97 277 -268 308 -73 14 -115 13 -185 -3z"/>
<path d="M6960 1467 c-135 -32 -219 -122 -256 -275 -19 -79 -19 -465 0 -544
21 -88 52 -142 112 -197 68 -62 130 -84 239 -84 119 0 176 22 251 97 51 52 64
72 85 136 23 71 24 87 24 320 0 233 -1 249 -24 320 -21 64 -34 84 -85 136 -43
43 -76 66 -111 77 -67 23 -169 29 -235 14z m160 -174 c15 -9 39 -35 52 -57 23
-40 23 -46 23 -316 0 -264 -1 -277 -22 -316 -36 -68 -109 -91 -180 -57 -27 12
-42 30 -60 69 -22 48 -25 71 -30 226 -9 285 13 408 81 449 38 23 99 24 136 2z"/>
<path d="M7790 1467 c-101 -23 -184 -87 -230 -176 -22 -44 -42 -152 -31 -164
4 -4 52 -6 107 -5 l98 3 8 42 c15 89 55 132 131 140 126 15 195 -110 133 -242
-35 -75 -87 -139 -286 -351 l-180 -193 0 -71 0 -70 370 0 370 0 0 135 0 135
-85 0 -85 0 0 -50 0 -50 -142 0 -141 0 20 22 c11 13 73 82 138 153 228 251
274 332 261 464 -11 124 -81 219 -192 261 -68 25 -193 33 -264 17z"/>
<path d="M8684 1470 c-67 -14 -110 -36 -159 -81 -97 -89 -124 -194 -124 -469
0 -263 22 -358 106 -451 93 -103 282 -134 426 -71 53 24 118 86 146 140 42 83
51 148 51 382 0 234 -9 299 -51 382 -28 56 -93 116 -153 143 -58 27 -176 39
-242 25z m153 -180 c66 -40 83 -119 83 -374 0 -189 -13 -283 -43 -330 -42 -63
-142 -74 -198 -20 -53 50 -61 103 -57 376 3 230 4 246 26 289 37 75 120 101
189 59z"/>
</g>
</svg>
